# xmcd CD database file
#
# Track frame offsets:
#	150
#	15307
#	30001
#	49575
#	66356
#
# Disc length: 1069 seconds
#
# Revision: 0
# Processed by: cddbd v1.5.1PL2 Copyright (c) Steve Scherf et al.
# Submitted via: CDex 1.51
#
DISCID=2d042b05
DTITLE=Sam Hawkins - Sam Hawkins
DYEAR=1999
DGENRE=Country
TTITLE0=Rezavej drát
TTITLE1=Hej, Jean
TTITLE2=Dál to nejde
TTITLE3=Darling
TTITLE4=Fanda Hájek
EXTD=YEAR: 1999
EXTT0=
EXTT1=
EXTT2=
EXTT3=
EXTT4=
PLAYORDER=
